/* XPM */
static char *GedWiseIcon_xpm[]={
"48 48 51 1",
". c None",
"v c #00c600",
"u c #00ca00",
"w c #01d401",
"r c #01e301",
"p c #01f301",
"l c #01fd01",
"s c #02db02",
"q c #02eb02",
"C c #09cb09",
"L c #09eb09",
"H c #0ac70a",
"t c #0bd40b",
"k c #0bfd0b",
"S c #0ede0e",
"G c #0ef20e",
"B c #13cd13",
"R c #13e413",
"j c #13fd13",
"Q c #14f414",
"A c #1ace1a",
"n c #1bfd1b",
"O c #1fd01f",
"m c #23fd23",
"I c #25d125",
"z c #2bd22b",
"d c #2bfd2b",
"U c #2dd82d",
"V c #31d431",
"T c #32f432",
"c c #33fd33",
"e c #3bfd3b",
"J c #3cd63c",
"f c #43fd43",
"y c #45d845",
"b c #4bfd4b",
"N c #4cd94c",
"W c #50da50",
"o c #54fd54",
"i c #5bfd5b",
"M c #5edd5e",
"g c #63fd63",
"a c #6afd6a",
"K c #6fe16f",
"# c #74fd74",
"x c #76db76",
"P c #78e278",
"h c #7afd7a",
"D c #84fe84",
"E c #8bfe8b",
"F c #91fe91",
"................................................",
"................................................",
"................................................",
"................................................",
"................................................",
"................................................",
".........................#abcbdebfg.............",
".....................hidjjklllllllllmdbh........",
"...................inkllllllllllllllllklno......",
".................iklllllllllllllllllllpqrst.....",
"...............gdllkkllllllllllllllpprsuvvu.....",
"..............dkkjjkkkklllllllllllprwuuvuvux....",
".............jkjmmmjkkklllllllllprwuvuvuuuuy....",
"...........#kjceecdmnjklllllllpqwvuuuuuuuuuz....",
"..........#jcboobbcdnjkllllllpsuvuuuuuuuuuuA....",
".........hnbgaagibfdmjkklllpruuuuuuuuuuuuuuB....",
".........co#hh##gifcmnjkllpsvvuuuuuuuuuuuuuC....",
"........oi#DEDDhgobcmjkkpqwuvuuuuuuuuuuuuuuC....",
".......oihDEEEh#goecmjkkruuuuuuuuuuuuuuuuuuB....",
".......g#DFFEDhaobcdnjksuuuuuuuuuuuuuuuuuuuA....",
"......eaDEFFEhaobedmnGwHuuuuuuuuuuuuuuuuuuuI....",
".....DahEFEEhgobcdnjGtHCuuuuuuuuuuuuuuuuuuuJ....",
".....e#DEED#goecmnjGCHuuuuuuuuuuuuuuuuuuuuuK....",
".....g#DEDhgbednjjLCHuuuuuuuuuuuuuuuuuuuuuu.....",
"....ighED#gbemnjkLCHHuuuuuuuuuuuuuuuuuuuuuI.....",
"....i#hDhaoemnkkquuuuuuuuuuuuuuuuuuuuuuuuuM.....",
"....o#hhaifdnkkqwuuuuuuuuuuuuuuuuuuuuuuuuH......",
"....o#h#ibcnkkpwuuuuuuuuuuuuuuuuuuuuuuuuuJ......",
"...ao#aaoemjkpwuuuuuuuuuuuuuuuuuuuuuuuuuC.......",
"...ooaaibcnkpsuuuuuuuuuuuuuuuuuuuuuuuuuuN.......",
"...boiioemjksHuuuuuuuuuuuuuuuuuuuuuuuuuO........",
"...fbobbcmjLuuuuuuuuuuuuuuuuuuuuuuuuuuCP........",
"...efbfednQwuuuuuuuuuuuuuuuuuuuuuuuuuuN.........",
"...fdecdmQtuuuuuuuuuuuuuuuuuuuuuuuuuuz..........",
"...bnddmnRHCHuuuuuuuuuuuuuuuuuuuuuuuz...........",
"...innnnQCHuuuuuuuuuuuuuuuuuuuuuuuCz............",
"...#njjjSCCuuuuuuuuuuuuuuuuuuuuuuAN.............",
"....nkkLHCuuuuuuuuuuuuuuuuuuuuuuzP..............",
"....clpwuCuHuuuuuuuuuuuuuuuuuuCN................",
"....bkrHuuuuuuuuuuuuuuuuuuuCBy..................",
"....hQwuuuuuuuuuuuuuuuuuuCIy....................",
".....TuuCCuuuuuuuuHuuCCONK......................",
"......UyyNJJJIAIVAIyWM..........................",
"................................................",
"................................................",
"................................................",
"................................................",
"................................................"};
